<svg width="21" height="28" viewBox="0 0 21 28" fill="none" xmlns="http://www.w3.org/2000/svg">
<path d="M19.685 11.557L13.2942 11.057L8.5 17L6.90329 26.9725C6.90334 27.1862 6.97241 27.3945 7.10088 27.5685C7.22936 27.7426 7.41086 27.8736 7.62013 27.9435C7.8294 28.0134 8.05604 28.0186 8.26851 27.9584C8.48099 27.8982 8.66874 27.7756 8.80564 27.6076L20.5222 13.2199C20.6458 13.0683 20.7226 12.8862 20.7439 12.6945C20.7653 12.5028 20.7303 12.3091 20.6429 12.1357C20.5556 11.9622 20.4195 11.816 20.2501 11.7137C20.0807 11.6113 19.8849 11.5571 19.685 11.557Z" fill="#787D81"/>
<path d="M8.5 17L13.2942 11.057L14.5967 1.02747C14.5967 0.813809 14.5276 0.605476 14.3991 0.431452C14.2706 0.257428 14.0891 0.126366 13.8799 0.0564986C13.6706 -0.0133684 13.444 -0.0185661 13.2315 0.0416272C13.019 0.101821 12.8313 0.224414 12.6944 0.392351L0.977752 14.7801C0.854246 14.9317 0.777433 15.1138 0.756091 15.3055C0.73475 15.4972 0.76974 15.6909 0.857065 15.8643C0.94439 16.0378 1.08053 16.184 1.24991 16.2863C1.4193 16.3887 1.61511 16.4429 1.81496 16.443L8.5 17Z" fill="#787D81" fill-opacity="0.4"/>
</svg>
